<?xml version="1.0" standalone="no"?>

<svg viewBox="0 0 200 200" xmlns="http://www.w3.org/2000/svg">
  <path fill="#F2F4F8" d="M44.1,-76.1C57.8,-68.5,70.1,-58,77.1,-44.8C84.1,-31.7,85.9,-15.8,85.5,-0.2C85.1,15.4,82.6,30.8,75.4,43.7C68.2,56.6,56.4,66.9,43.1,74.1C29.8,81.4,14.9,85.4,-0.3,86C-15.6,86.6,-31.2,83.8,-43.9,76.2C-56.7,68.7,-66.6,56.4,-75.1,43C-83.5,29.5,-90.4,14.7,-90.7,-0.2C-91,-15.1,-84.6,-30.1,-76,-43.3C-67.4,-56.5,-56.5,-67.8,-43.5,-75.7C-30.4,-83.7,-15.2,-88.3,0,-88.3C15.2,-88.2,30.4,-83.6,44.1,-76.1Z" transform="translate(100 100)" />
</svg>