<?xml version="1.0" encoding="UTF-8" standalone="no"?>
<svg
   xmlns="http://www.w3.org/2000/svg"
   height="284"
   width="1440"
   version="1.1"
   viewBox="0 0 1440 284">
  <path
     d="m 0,223.61993 48,5.29101 c 48,5.69033 144,15.67336 240,-5.29101 96,-20.96437 192,-74.87274 288,-90.5461 96,-16.27235 192,5.69032 288,37.33654 96,32.24519 192,74.17393 288,69.18241 96,-4.99151 192,-58.89989 240,-85.15526 l 48,-26.6547 V 0 h -48 C 1344,0 1248,0 1152,0 1056,0 960,0 864,0 768,0 672,0 576,0 480,0 384,0 288,0 192,0 96,0 48,0 H 0 Z"
     fill-opacity="1"
     fill="#21cbf3" />
</svg>
