<?xml version="1.0" encoding="UTF-8" standalone="no"?>
<svg
   xmlns:dc="http://purl.org/dc/elements/1.1/"
   xmlns:cc="http://creativecommons.org/ns#"
   xmlns:rdf="http://www.w3.org/1999/02/22-rdf-syntax-ns#"
   xmlns:svg="http://www.w3.org/2000/svg"
   xmlns="http://www.w3.org/2000/svg"
   xmlns:sodipodi="http://sodipodi.sourceforge.net/DTD/sodipodi-0.dtd"
   xmlns:inkscape="http://www.inkscape.org/namespaces/inkscape"
   inkscape:version="1.0 (4035a4fb49, 2020-05-01)"
   height="280"
   width="1440"
   sodipodi:docname="thirdWave.svg"
   id="svg4"
   version="1.1"
   viewBox="0 0 1440 280">
  <metadata
     id="metadata10">
    <rdf:RDF>
      <cc:Work
         rdf:about="">
        <dc:format>image/svg+xml</dc:format>
        <dc:type
           rdf:resource="http://purl.org/dc/dcmitype/StillImage" />
        <dc:title></dc:title>
      </cc:Work>
    </rdf:RDF>
  </metadata>
  <defs
     id="defs8" />
  <sodipodi:namedview
     inkscape:current-layer="svg4"
     inkscape:window-maximized="1"
     inkscape:window-y="-9"
     inkscape:window-x="-9"
     inkscape:cy="444.5579"
     inkscape:cx="1198.0986"
     inkscape:zoom="0.49031944"
     inkscape:showpageshadow="false"
     showgrid="false"
     id="namedview6"
     inkscape:window-height="1001"
     inkscape:window-width="1920"
     inkscape:pageshadow="2"
     inkscape:pageopacity="0"
     guidetolerance="10"
     gridtolerance="10"
     objecttolerance="10"
     borderopacity="1"
     bordercolor="#666666"
     pagecolor="#ffffff" />
  <path
     style="stroke-width:1.0014"
     id="path2"
     d="m 0,215.82073 48,-26.77478 c 48,-26.37367 144,-80.52493 240,-74.80896 96,5.31484 192,69.49411 288,64.17926 96,-5.71596 192,-79.92324 288,-90.954053 96,-11.030812 192,43.120453 288,69.494113 96,26.77479 192,26.77479 240,26.77479 h 48 V 280 h -48 c -48,0 -144,0 -240,0 -96,0 -192,0 -288,0 -96,0 -192,0 -288,0 -96,0 -192,0 -288,0 -96,0 -192,0 -240,0 H 0 Z"
     fill-opacity="1"
     fill="#21cbf3" />
</svg>
